<svg width="150" height="40" viewBox="0 0 150 40" fill="none" xmlns="http://www.w3.org/2000/svg">
<path fill-rule="evenodd" clip-rule="evenodd" d="M11.4427 28.8368L11.4816 28.8686C12.4611 29.6785 24.3304 39.4862 24.7383 39.7019H14.2148C12.6717 39.7019 11.4199 38.4156 11.4239 36.8302L11.4427 28.8368ZM11.9485 19.851C23.6488 25.0387 32.9835 39.0614 32.9835 39.0614C21.0605 27.663 7.30463 23.8185 6.39088 23.5724L6.34258 23.5591H11.9485V19.851ZM11.703 8.32421C11.703 8.32421 29.5432 19.4844 34.2515 29.4562C34.2515 29.4562 20.1629 16.8416 4.43994 13.418L11.7835 13.9354L11.703 8.32421ZM0 0.0715108C6.72498 -0.406235 13.7425 1.6662 13.7425 1.6662L33.1781 2.09631C34.1281 2.11748 34.8862 2.89564 34.8862 3.85113V19.851C23.0947 4.21639 0 0.0715108 0 0.0715108Z" fill="#4834D4"/>
<path d="M57.3251 27.4606C59.0936 27.4606 61.6322 26.5832 62.5339 24.7344L62.7271 26.9908H66.4237V11.5428H62.6627L62.5339 13.6735C61.6336 12.1066 59.5431 11.167 57.4217 11.167C52.8248 11.167 49.2235 13.9554 49.2235 19.2516C49.2235 24.6405 52.6638 27.4606 57.3251 27.4606ZM57.839 23.951C55.236 23.951 53.1455 22.1961 53.1455 19.2516C53.1455 16.3057 55.236 14.5827 57.839 14.5827C60.9251 14.5827 62.4682 16.933 62.4682 19.2516C62.4682 21.6006 60.9251 23.951 57.839 23.951ZM71.6982 9.41215C72.8548 9.41215 74.0128 8.66046 74.0128 7.18884C74.0115 5.68282 72.8522 4.96289 71.6969 4.96289C70.5389 4.96289 69.381 5.68414 69.381 7.18752C69.381 8.66046 70.5403 9.41215 71.6982 9.41215ZM73.6586 26.9908V11.4806H69.7366V26.9908H73.6586ZM81.1188 26.9908V18.844C81.1188 15.9921 83.0148 14.9267 85.0717 14.9267C86.3585 14.9267 87.0978 15.2708 87.9015 15.9299L89.67 12.6081C88.8019 11.7612 87.2266 11.1352 85.587 11.1352C83.9795 11.1352 82.3399 11.4171 81.1188 13.3294L80.8277 11.5428H77.1955V26.9908H81.1188Z" fill="#4834D4"/>
<path d="M105.802 25.8063C105.802 27.7032 105.526 29.2361 104.975 30.4051C104.424 31.5741 103.729 32.4784 102.891 33.1181C102.075 33.7577 101.192 34.1878 100.244 34.4084C99.2955 34.629 98.4353 34.7392 97.6633 34.7392C96.8913 34.7392 96.1304 34.662 95.3804 34.5077C94.6526 34.3753 93.9578 34.1658 93.2961 33.879C92.6344 33.6144 92.0278 33.2835 91.4764 32.8865C90.9471 32.4895 90.4839 32.0373 90.0869 31.53L91.6419 30.0743C92.3477 31.0668 93.2299 31.7947 94.2886 32.2579C95.3474 32.7211 96.4722 32.9527 97.6633 32.9527C98.6779 32.9527 99.5271 32.8203 100.211 32.5556C100.917 32.291 101.49 31.9381 101.931 31.4969C102.394 31.0779 102.747 30.6036 102.99 30.0743C103.255 29.567 103.442 29.0486 103.552 28.5193C103.685 28.012 103.762 27.5267 103.784 27.0635C103.806 26.6004 103.817 26.2254 103.817 25.9387V23.8212H103.751C103.177 24.7476 102.394 25.4755 101.402 26.0048C100.431 26.5342 99.2845 26.7989 97.9611 26.7989C96.8362 26.7989 95.7775 26.6004 94.7849 26.2033C93.7924 25.7843 92.9211 25.2218 92.1712 24.516C91.4433 23.7881 90.8588 22.95 90.4177 22.0016C89.9986 21.0531 89.7891 20.0385 89.7891 18.9577C89.7891 17.877 89.9986 16.8624 90.4177 15.9139C90.8588 14.9655 91.4433 14.1384 92.1712 13.4326C92.9211 12.7268 93.7924 12.1643 94.7849 11.7452C95.7775 11.3262 96.8362 11.1166 97.9611 11.1166C99.2845 11.1166 100.431 11.3813 101.402 11.9107C102.394 12.44 103.177 13.1679 103.751 14.0943H103.817V11.5136H105.802V25.8063ZM103.883 18.9577C103.883 18.1196 103.718 17.3366 103.387 16.6087C103.078 15.8588 102.648 15.2192 102.097 14.6898C101.567 14.1384 100.928 13.7083 100.178 13.3995C99.4499 13.0686 98.6669 12.9032 97.8287 12.9032C96.9906 12.9032 96.1965 13.0686 95.4466 13.3995C94.7188 13.7083 94.0791 14.1384 93.5277 14.6898C92.9983 15.2192 92.5682 15.8588 92.2374 16.6087C91.9286 17.3366 91.7742 18.1196 91.7742 18.9577C91.7742 19.7959 91.9286 20.5899 92.2374 21.3399C92.5682 22.0677 92.9983 22.7074 93.5277 23.2588C94.0791 23.7881 94.7188 24.2182 95.4466 24.5491C96.1965 24.8579 96.9906 25.0123 97.8287 25.0123C98.6669 25.0123 99.4499 24.8579 100.178 24.5491C100.928 24.2182 101.567 23.7881 102.097 23.2588C102.648 22.7074 103.078 22.0677 103.387 21.3399C103.718 20.5899 103.883 19.7959 103.883 18.9577Z" fill="#4834D4"/>
<path d="M121.617 20.3804C121.617 21.1303 121.617 21.8031 121.617 22.3986C121.639 22.9941 121.661 23.5455 121.683 24.0528C121.705 24.5601 121.727 25.0343 121.749 25.4755C121.793 25.9166 121.848 26.3577 121.914 26.7989H120.062C119.929 26.0489 119.863 25.2218 119.863 24.3175H119.797C119.223 25.31 118.507 26.0379 117.646 26.5011C116.808 26.9643 115.739 27.1959 114.437 27.1959C113.775 27.1959 113.125 27.1077 112.485 26.9312C111.846 26.7768 111.272 26.5232 110.765 26.1703C110.257 25.7953 109.838 25.3211 109.508 24.7476C109.199 24.1741 109.044 23.4794 109.044 22.6633C109.044 21.4943 109.342 20.5679 109.938 19.8841C110.533 19.2004 111.261 18.6931 112.121 18.3622C113.003 18.0093 113.93 17.7887 114.9 17.7005C115.893 17.5902 116.764 17.5351 117.514 17.5351H119.83V16.6087C119.83 15.2853 119.422 14.3369 118.606 13.7634C117.79 13.1899 116.764 12.9032 115.529 12.9032C113.764 12.9032 112.209 13.4767 110.864 14.6236L109.706 13.2671C110.434 12.5613 111.338 12.032 112.419 11.6791C113.5 11.3041 114.536 11.1166 115.529 11.1166C117.382 11.1166 118.86 11.5578 119.962 12.44C121.065 13.3002 121.617 14.7008 121.617 16.6418V20.3804ZM117.646 19.1232C116.808 19.1232 115.992 19.1783 115.198 19.2886C114.426 19.3989 113.72 19.5864 113.081 19.851C112.463 20.1157 111.967 20.4686 111.592 20.9098C111.217 21.3509 111.029 21.9023 111.029 22.564C111.029 23.0272 111.129 23.4463 111.327 23.8212C111.548 24.1741 111.823 24.4719 112.154 24.7145C112.485 24.9351 112.849 25.1115 113.246 25.2439C113.665 25.3542 114.084 25.4093 114.503 25.4093C115.562 25.4093 116.433 25.2549 117.117 24.9461C117.801 24.6373 118.341 24.2403 118.738 23.7551C119.157 23.2478 119.444 22.6853 119.598 22.0677C119.753 21.4281 119.83 20.7884 119.83 20.1488V19.1232H117.646Z" fill="#4834D4"/>
<path d="M133.435 13.3002H129.068V23.2588C129.068 23.9425 129.256 24.4719 129.63 24.8469C130.005 25.2218 130.524 25.4093 131.185 25.4093C131.56 25.4093 131.935 25.3652 132.31 25.277C132.707 25.1667 133.082 25.0343 133.435 24.8799L133.601 26.6665C133.226 26.7989 132.796 26.9202 132.31 27.0305C131.825 27.1407 131.395 27.1959 131.02 27.1959C130.314 27.1959 129.708 27.0856 129.2 26.865C128.693 26.6665 128.285 26.3908 127.976 26.0379C127.667 25.685 127.436 25.277 127.281 24.8138C127.149 24.3285 127.083 23.8102 127.083 23.2588V13.3002H123.774V11.5136H127.083V7.11336H129.068V11.5136H133.435V13.3002Z" fill="#4834D4"/>
<path d="M149.537 23.9205C148.765 25.0895 147.805 25.9276 146.658 26.4349C145.534 26.9422 144.287 27.1959 142.92 27.1959C141.751 27.1959 140.692 26.9974 139.744 26.6004C138.795 26.2033 137.979 25.6519 137.295 24.9461C136.612 24.2182 136.082 23.3691 135.707 22.3986C135.354 21.406 135.178 20.3142 135.178 19.1232C135.178 17.9762 135.365 16.9175 135.74 15.947C136.115 14.9765 136.645 14.1384 137.328 13.4326C138.012 12.7047 138.817 12.1423 139.744 11.7452C140.67 11.3262 141.696 11.1166 142.821 11.1166C143.99 11.1166 145.015 11.3262 145.897 11.7452C146.802 12.1423 147.552 12.6826 148.147 13.3664C148.765 14.0281 149.228 14.7891 149.537 15.6493C149.846 16.5095 150 17.3807 150 18.263V19.6525H137.163C137.163 20.0716 137.24 20.612 137.395 21.2737C137.571 21.9133 137.88 22.5419 138.321 23.1595C138.762 23.7771 139.347 24.3065 140.075 24.7476C140.824 25.1887 141.784 25.4093 142.953 25.4093C143.968 25.4093 144.949 25.1667 145.897 24.6814C146.846 24.1962 147.574 23.5345 148.081 22.6963L149.537 23.9205ZM148.015 17.8659C148.015 17.1822 147.872 16.5426 147.585 15.947C147.32 15.3515 146.945 14.8332 146.46 14.392C145.997 13.9288 145.434 13.5649 144.773 13.3002C144.133 13.0356 143.449 12.9032 142.721 12.9032C141.641 12.9032 140.736 13.1238 140.008 13.5649C139.303 14.006 138.74 14.5133 138.321 15.0868C137.902 15.6603 137.604 16.2227 137.428 16.7741C137.251 17.3035 137.163 17.6674 137.163 17.8659H148.015Z" fill="#4834D4"/>
</svg>
