<svg width="158" height="24" viewBox="0 0 158 24" fill="none" xmlns="http://www.w3.org/2000/svg">
<g opacity="0.5">
<path fill-rule="evenodd" clip-rule="evenodd" d="M8.55626 3.46447C9.49394 2.52678 10.7657 2 12.0918 2C13.4179 2 14.6896 2.52678 15.6273 3.46447C16.565 4.40215 17.0918 5.67392 17.0918 7V10H18.0918C18.8874 10 19.6505 10.3161 20.2131 10.8787C20.7757 11.4413 21.0918 12.2043 21.0918 13V19C21.0918 19.7957 20.7757 20.5587 20.2131 21.1213C19.6505 21.6839 18.8874 22 18.0918 22H6.0918C5.29615 22 4.53309 21.6839 3.97048 21.1213C3.40787 20.5587 3.0918 19.7957 3.0918 19V13C3.0918 12.2044 3.40787 11.4413 3.97048 10.8787C4.53309 10.3161 5.29615 10 6.0918 10H7.0918V7C7.0918 5.67392 7.61858 4.40215 8.55626 3.46447ZM9.0918 10H15.0918V7C15.0918 6.20435 14.7757 5.44129 14.2131 4.87868C13.6505 4.31607 12.8874 4 12.0918 4C11.2961 4 10.5331 4.31607 9.97048 4.87868C9.40787 5.44129 9.0918 6.20435 9.0918 7V10ZM6.0918 12C5.82658 12 5.57223 12.1054 5.38469 12.2929C5.19715 12.4804 5.0918 12.7348 5.0918 13V19C5.0918 19.2652 5.19715 19.5196 5.38469 19.7071C5.57223 19.8946 5.82658 20 6.0918 20H18.0918C18.357 20 18.6114 19.8946 18.7989 19.7071C18.9864 19.5196 19.0918 19.2652 19.0918 19V13C19.0918 12.7348 18.9864 12.4804 18.7989 12.2929C18.6114 12.1054 18.357 12 18.0918 12H6.0918ZM12.0918 14C12.6441 14 13.0918 14.4477 13.0918 15V17C13.0918 17.5523 12.6441 18 12.0918 18C11.5395 18 11.0918 17.5523 11.0918 17V15C11.0918 14.4477 11.5395 14 12.0918 14Z" fill="#9A9FBF"/>
<path d="M32.7735 16.12C32.0295 16.12 31.4055 16.012 30.9015 15.796C30.4055 15.572 30.0255 15.284 29.7615 14.932C29.5055 14.572 29.3695 14.196 29.3535 13.804C29.3535 13.732 29.3775 13.672 29.4255 13.624C29.4735 13.576 29.5335 13.552 29.6055 13.552H30.6735C30.7775 13.552 30.8535 13.576 30.9015 13.624C30.9575 13.664 31.0055 13.716 31.0455 13.78C31.0935 13.932 31.1855 14.084 31.3215 14.236C31.4575 14.38 31.6415 14.5 31.8735 14.596C32.1135 14.692 32.4135 14.74 32.7735 14.74C33.3495 14.74 33.7775 14.644 34.0575 14.452C34.3455 14.26 34.4895 14 34.4895 13.672C34.4895 13.44 34.4135 13.256 34.2615 13.12C34.1095 12.976 33.8735 12.848 33.5535 12.736C33.2415 12.616 32.8255 12.492 32.3055 12.364C31.7055 12.22 31.2015 12.048 30.7935 11.848C30.3935 11.64 30.0895 11.38 29.8815 11.068C29.6815 10.756 29.5815 10.36 29.5815 9.88C29.5815 9.416 29.7055 9.004 29.9535 8.644C30.2095 8.284 30.5695 8 31.0335 7.792C31.5055 7.584 32.0655 7.48 32.7135 7.48C33.2335 7.48 33.6935 7.552 34.0935 7.696C34.4935 7.832 34.8255 8.016 35.0895 8.248C35.3535 8.472 35.5535 8.716 35.6895 8.98C35.8335 9.236 35.9095 9.488 35.9175 9.736C35.9175 9.8 35.8935 9.86 35.8455 9.916C35.8055 9.964 35.7455 9.988 35.6655 9.988H34.5495C34.4855 9.988 34.4215 9.972 34.3575 9.94C34.2935 9.908 34.2415 9.848 34.2015 9.76C34.1535 9.512 33.9975 9.3 33.7335 9.124C33.4695 8.948 33.1295 8.86 32.7135 8.86C32.2815 8.86 31.9335 8.94 31.6695 9.1C31.4055 9.26 31.2735 9.508 31.2735 9.844C31.2735 10.068 31.3375 10.256 31.4655 10.408C31.6015 10.552 31.8135 10.68 32.1015 10.792C32.3975 10.904 32.7855 11.024 33.2655 11.152C33.9455 11.304 34.5015 11.48 34.9335 11.68C35.3655 11.88 35.6815 12.136 35.8815 12.448C36.0815 12.752 36.1815 13.14 36.1815 13.612C36.1815 14.14 36.0375 14.592 35.7495 14.968C35.4695 15.336 35.0735 15.62 34.5615 15.82C34.0495 16.02 33.4535 16.12 32.7735 16.12ZM39.8607 16.12C38.9727 16.12 38.2687 15.864 37.7487 15.352C37.2287 14.84 36.9487 14.112 36.9087 13.168C36.9007 13.088 36.8967 12.988 36.8967 12.868C36.8967 12.74 36.9007 12.64 36.9087 12.568C36.9407 11.968 37.0767 11.448 37.3167 11.008C37.5647 10.568 37.9047 10.232 38.3367 10C38.7687 9.76 39.2767 9.64 39.8607 9.64C40.5087 9.64 41.0527 9.776 41.4927 10.048C41.9327 10.312 42.2647 10.684 42.4887 11.164C42.7127 11.636 42.8247 12.184 42.8247 12.808V13.06C42.8247 13.14 42.7967 13.208 42.7407 13.264C42.6847 13.32 42.6127 13.348 42.5247 13.348H38.5407C38.5407 13.348 38.5407 13.36 38.5407 13.384C38.5407 13.408 38.5407 13.428 38.5407 13.444C38.5487 13.724 38.6007 13.984 38.6967 14.224C38.8007 14.456 38.9487 14.644 39.1407 14.788C39.3407 14.932 39.5767 15.004 39.8487 15.004C40.0727 15.004 40.2607 14.972 40.4127 14.908C40.5647 14.836 40.6887 14.756 40.7847 14.668C40.8807 14.58 40.9487 14.508 40.9887 14.452C41.0607 14.356 41.1167 14.3 41.1567 14.284C41.2047 14.26 41.2727 14.248 41.3607 14.248H42.3927C42.4727 14.248 42.5367 14.272 42.5847 14.32C42.6407 14.368 42.6647 14.428 42.6567 14.5C42.6487 14.628 42.5807 14.784 42.4527 14.968C42.3327 15.152 42.1567 15.332 41.9247 15.508C41.6927 15.684 41.4007 15.832 41.0487 15.952C40.7047 16.064 40.3087 16.12 39.8607 16.12ZM38.5407 12.34H41.1927V12.304C41.1927 11.992 41.1407 11.72 41.0367 11.488C40.9327 11.256 40.7807 11.072 40.5807 10.936C40.3807 10.8 40.1407 10.732 39.8607 10.732C39.5807 10.732 39.3407 10.8 39.1407 10.936C38.9407 11.072 38.7887 11.256 38.6847 11.488C38.5887 11.72 38.5407 11.992 38.5407 12.304V12.34ZM46.5585 16.12C45.9825 16.12 45.4745 16.012 45.0345 15.796C44.6025 15.58 44.2625 15.268 44.0145 14.86C43.7745 14.444 43.6425 13.944 43.6185 13.36C43.6105 13.24 43.6065 13.084 43.6065 12.892C43.6065 12.692 43.6105 12.528 43.6185 12.4C43.6425 11.816 43.7745 11.32 44.0145 10.912C44.2625 10.496 44.6025 10.18 45.0345 9.964C45.4745 9.748 45.9825 9.64 46.5585 9.64C47.0705 9.64 47.5065 9.712 47.8665 9.856C48.2265 10 48.5225 10.18 48.7545 10.396C48.9865 10.612 49.1585 10.84 49.2705 11.08C49.3905 11.312 49.4545 11.524 49.4625 11.716C49.4705 11.804 49.4425 11.876 49.3785 11.932C49.3225 11.98 49.2545 12.004 49.1745 12.004H48.1185C48.0385 12.004 47.9745 11.984 47.9265 11.944C47.8865 11.904 47.8465 11.844 47.8065 11.764C47.6865 11.444 47.5265 11.22 47.3265 11.092C47.1345 10.956 46.8865 10.888 46.5825 10.888C46.1825 10.888 45.8625 11.016 45.6225 11.272C45.3905 11.52 45.2665 11.916 45.2505 12.46C45.2345 12.764 45.2345 13.044 45.2505 13.3C45.2665 13.852 45.3905 14.252 45.6225 14.5C45.8625 14.748 46.1825 14.872 46.5825 14.872C46.8945 14.872 47.1465 14.808 47.3385 14.68C47.5305 14.544 47.6865 14.316 47.8065 13.996C47.8465 13.916 47.8865 13.856 47.9265 13.816C47.9745 13.776 48.0385 13.756 48.1185 13.756H49.1745C49.2545 13.756 49.3225 13.784 49.3785 13.84C49.4425 13.888 49.4705 13.956 49.4625 14.044C49.4545 14.188 49.4145 14.352 49.3425 14.536C49.2785 14.712 49.1705 14.896 49.0185 15.088C48.8745 15.272 48.6905 15.444 48.4665 15.604C48.2425 15.756 47.9705 15.88 47.6505 15.976C47.3385 16.072 46.9745 16.12 46.5585 16.12ZM52.79 16.12C52.302 16.12 51.878 16.012 51.518 15.796C51.166 15.572 50.894 15.26 50.702 14.86C50.51 14.452 50.414 13.972 50.414 13.42V10.048C50.414 9.968 50.442 9.9 50.498 9.844C50.554 9.788 50.622 9.76 50.702 9.76H51.758C51.846 9.76 51.914 9.788 51.962 9.844C52.018 9.9 52.046 9.968 52.046 10.048V13.348C52.046 14.34 52.482 14.836 53.354 14.836C53.77 14.836 54.098 14.704 54.338 14.44C54.586 14.176 54.71 13.812 54.71 13.348V10.048C54.71 9.968 54.738 9.9 54.794 9.844C54.85 9.788 54.918 9.76 54.998 9.76H56.054C56.134 9.76 56.202 9.788 56.258 9.844C56.314 9.9 56.342 9.968 56.342 10.048V15.712C56.342 15.792 56.314 15.86 56.258 15.916C56.202 15.972 56.134 16 56.054 16H55.082C54.994 16 54.922 15.972 54.866 15.916C54.818 15.86 54.794 15.792 54.794 15.712V15.22C54.578 15.5 54.31 15.72 53.99 15.88C53.67 16.04 53.27 16.12 52.79 16.12ZM57.9751 16C57.8951 16 57.8271 15.972 57.7711 15.916C57.7151 15.86 57.6871 15.792 57.6871 15.712V10.06C57.6871 9.972 57.7151 9.9 57.7711 9.844C57.8271 9.788 57.8951 9.76 57.9751 9.76H58.9471C59.0271 9.76 59.0951 9.788 59.1511 9.844C59.2151 9.9 59.2471 9.972 59.2471 10.06V10.552C59.4311 10.296 59.6671 10.1 59.9551 9.964C60.2511 9.828 60.5911 9.76 60.9751 9.76H61.4671C61.5551 9.76 61.6231 9.788 61.6711 9.844C61.7271 9.9 61.7551 9.968 61.7551 10.048V10.912C61.7551 10.992 61.7271 11.06 61.6711 11.116C61.6231 11.172 61.5551 11.2 61.4671 11.2H60.5311C60.1471 11.2 59.8471 11.308 59.6311 11.524C59.4231 11.74 59.3191 12.036 59.3191 12.412V15.712C59.3191 15.792 59.2911 15.86 59.2351 15.916C59.1791 15.972 59.1071 16 59.0191 16H57.9751ZM65.057 16.12C64.169 16.12 63.465 15.864 62.945 15.352C62.425 14.84 62.145 14.112 62.105 13.168C62.097 13.088 62.093 12.988 62.093 12.868C62.093 12.74 62.097 12.64 62.105 12.568C62.137 11.968 62.273 11.448 62.513 11.008C62.761 10.568 63.101 10.232 63.533 10C63.965 9.76 64.473 9.64 65.057 9.64C65.705 9.64 66.249 9.776 66.689 10.048C67.129 10.312 67.461 10.684 67.685 11.164C67.909 11.636 68.021 12.184 68.021 12.808V13.06C68.021 13.14 67.993 13.208 67.937 13.264C67.881 13.32 67.809 13.348 67.721 13.348H63.737C63.737 13.348 63.737 13.36 63.737 13.384C63.737 13.408 63.737 13.428 63.737 13.444C63.745 13.724 63.797 13.984 63.893 14.224C63.997 14.456 64.145 14.644 64.337 14.788C64.537 14.932 64.773 15.004 65.045 15.004C65.269 15.004 65.457 14.972 65.609 14.908C65.761 14.836 65.885 14.756 65.981 14.668C66.077 14.58 66.145 14.508 66.185 14.452C66.257 14.356 66.313 14.3 66.353 14.284C66.401 14.26 66.469 14.248 66.557 14.248H67.589C67.669 14.248 67.733 14.272 67.781 14.32C67.837 14.368 67.861 14.428 67.853 14.5C67.845 14.628 67.777 14.784 67.649 14.968C67.529 15.152 67.353 15.332 67.121 15.508C66.889 15.684 66.597 15.832 66.245 15.952C65.901 16.064 65.505 16.12 65.057 16.12ZM63.737 12.34H66.389V12.304C66.389 11.992 66.337 11.72 66.233 11.488C66.129 11.256 65.977 11.072 65.777 10.936C65.577 10.8 65.337 10.732 65.057 10.732C64.777 10.732 64.537 10.8 64.337 10.936C64.137 11.072 63.985 11.256 63.881 11.488C63.785 11.72 63.737 11.992 63.737 12.304V12.34ZM71.3707 16.12C70.9547 16.12 70.5867 16.052 70.2667 15.916C69.9547 15.772 69.6947 15.572 69.4867 15.316C69.2787 15.06 69.1187 14.76 69.0067 14.416C68.8947 14.064 68.8307 13.68 68.8147 13.264C68.8067 13.12 68.8027 12.992 68.8027 12.88C68.8027 12.76 68.8067 12.628 68.8147 12.484C68.8307 12.084 68.8907 11.712 68.9947 11.368C69.1067 11.024 69.2667 10.724 69.4747 10.468C69.6907 10.204 69.9547 10 70.2667 9.856C70.5867 9.712 70.9547 9.64 71.3707 9.64C71.8027 9.64 72.1667 9.716 72.4627 9.868C72.7667 10.012 73.0187 10.2 73.2187 10.432V7.768C73.2187 7.688 73.2427 7.62 73.2907 7.564C73.3467 7.508 73.4187 7.48 73.5067 7.48H74.5267C74.6067 7.48 74.6747 7.508 74.7307 7.564C74.7867 7.62 74.8147 7.688 74.8147 7.768V15.712C74.8147 15.792 74.7867 15.86 74.7307 15.916C74.6747 15.972 74.6067 16 74.5267 16H73.5787C73.4907 16 73.4187 15.972 73.3627 15.916C73.3147 15.86 73.2907 15.792 73.2907 15.712V15.268C73.0907 15.516 72.8347 15.72 72.5227 15.88C72.2187 16.04 71.8347 16.12 71.3707 16.12ZM71.8147 14.836C72.1507 14.836 72.4187 14.76 72.6187 14.608C72.8187 14.456 72.9667 14.264 73.0627 14.032C73.1587 13.792 73.2107 13.548 73.2187 13.3C73.2267 13.156 73.2307 13.004 73.2307 12.844C73.2307 12.676 73.2267 12.52 73.2187 12.376C73.2107 12.136 73.1547 11.908 73.0507 11.692C72.9467 11.468 72.7947 11.284 72.5947 11.14C72.3947 10.996 72.1347 10.924 71.8147 10.924C71.4787 10.924 71.2107 11 71.0107 11.152C70.8187 11.296 70.6787 11.488 70.5907 11.728C70.5027 11.968 70.4507 12.232 70.4347 12.52C70.4267 12.76 70.4267 13 70.4347 13.24C70.4507 13.528 70.5027 13.792 70.5907 14.032C70.6787 14.272 70.8187 14.468 71.0107 14.62C71.2107 14.764 71.4787 14.836 71.8147 14.836ZM82.1323 16.12C81.6683 16.12 81.2803 16.04 80.9683 15.88C80.6643 15.72 80.4123 15.516 80.2123 15.268V15.712C80.2123 15.792 80.1843 15.86 80.1283 15.916C80.0803 15.972 80.0123 16 79.9243 16H78.9763C78.8963 16 78.8283 15.972 78.7723 15.916C78.7163 15.86 78.6883 15.792 78.6883 15.712V7.768C78.6883 7.688 78.7163 7.62 78.7723 7.564C78.8283 7.508 78.8963 7.48 78.9763 7.48H79.9963C80.0843 7.48 80.1523 7.508 80.2003 7.564C80.2563 7.62 80.2843 7.688 80.2843 7.768V10.432C80.4843 10.2 80.7323 10.012 81.0283 9.868C81.3323 9.716 81.7003 9.64 82.1323 9.64C82.5563 9.64 82.9243 9.712 83.2363 9.856C83.5483 10 83.8083 10.204 84.0163 10.468C84.2323 10.724 84.3963 11.024 84.5083 11.368C84.6203 11.712 84.6803 12.084 84.6883 12.484C84.6963 12.628 84.7003 12.76 84.7003 12.88C84.7003 12.992 84.6963 13.12 84.6883 13.264C84.6723 13.68 84.6083 14.064 84.4963 14.416C84.3843 14.76 84.2243 15.06 84.0163 15.316C83.8083 15.572 83.5483 15.772 83.2363 15.916C82.9243 16.052 82.5563 16.12 82.1323 16.12ZM81.6883 14.836C82.0323 14.836 82.3003 14.764 82.4923 14.62C82.6843 14.468 82.8203 14.272 82.9003 14.032C82.9883 13.792 83.0403 13.528 83.0563 13.24C83.0723 13 83.0723 12.76 83.0563 12.52C83.0403 12.232 82.9883 11.968 82.9003 11.728C82.8203 11.488 82.6843 11.296 82.4923 11.152C82.3003 11 82.0323 10.924 81.6883 10.924C81.3683 10.924 81.1083 10.996 80.9083 11.14C80.7083 11.284 80.5563 11.468 80.4523 11.692C80.3483 11.908 80.2923 12.136 80.2843 12.376C80.2763 12.52 80.2723 12.676 80.2723 12.844C80.2723 13.004 80.2763 13.156 80.2843 13.3C80.3003 13.548 80.3523 13.792 80.4403 14.032C80.5363 14.264 80.6843 14.456 80.8843 14.608C81.0923 14.76 81.3603 14.836 81.6883 14.836ZM86.6776 18.28C86.6136 18.28 86.5576 18.256 86.5096 18.208C86.4616 18.16 86.4376 18.104 86.4376 18.04C86.4376 18.008 86.4376 17.976 86.4376 17.944C86.4456 17.92 86.4616 17.888 86.4856 17.848L87.4216 15.628L85.1176 10.192C85.0856 10.112 85.0696 10.056 85.0696 10.024C85.0776 9.952 85.1056 9.892 85.1536 9.844C85.2016 9.788 85.2616 9.76 85.3336 9.76H86.3056C86.4016 9.76 86.4736 9.784 86.5216 9.832C86.5696 9.88 86.6056 9.932 86.6296 9.988L88.2256 13.912L89.8696 9.988C89.8936 9.924 89.9296 9.872 89.9776 9.832C90.0256 9.784 90.0976 9.76 90.1936 9.76H91.1536C91.2176 9.76 91.2736 9.784 91.3216 9.832C91.3776 9.88 91.4056 9.936 91.4056 10C91.4056 10.048 91.3896 10.112 91.3576 10.192L87.9616 18.052C87.9296 18.116 87.8896 18.168 87.8416 18.208C87.7936 18.256 87.7216 18.28 87.6256 18.28H86.6776Z" fill="#9A9FBF"/>
<path fill-rule="evenodd" clip-rule="evenodd" d="M100.28 16.074L100.297 16.0884C100.741 16.4556 106.123 20.9022 106.308 21H101.536C100.837 21 100.269 20.4168 100.271 19.698L100.28 16.074ZM100.509 12C105.814 14.352 110.046 20.7096 110.046 20.7096C104.64 15.5418 98.4036 13.7988 97.9893 13.6872L97.9674 13.6812H100.509V12ZM100.398 6.77402C100.398 6.77402 108.486 11.8338 110.621 16.3548C110.621 16.3548 104.233 10.6356 97.1048 9.08341L100.434 9.31801L100.398 6.77402ZM95.0918 3.03242C98.1408 2.81582 101.322 3.75542 101.322 3.75542L110.134 3.95042C110.565 3.96002 110.908 4.31282 110.908 4.74602V12C105.562 4.91162 95.0918 3.03242 95.0918 3.03242Z" fill="#9A9FBF"/>
<path d="M115.765 16C115.701 16 115.641 15.976 115.585 15.928C115.537 15.88 115.513 15.82 115.513 15.748C115.513 15.716 115.521 15.68 115.537 15.64L118.429 7.9C118.453 7.82 118.497 7.752 118.561 7.696C118.633 7.632 118.729 7.6 118.849 7.6H120.157C120.277 7.6 120.369 7.632 120.433 7.696C120.497 7.752 120.545 7.82 120.577 7.9L123.469 15.64C123.477 15.68 123.481 15.716 123.481 15.748C123.481 15.82 123.457 15.88 123.409 15.928C123.361 15.976 123.305 16 123.241 16H122.197C122.085 16 122.001 15.976 121.945 15.928C121.897 15.872 121.865 15.82 121.849 15.772L121.285 14.308H117.721L117.157 15.772C117.141 15.82 117.105 15.872 117.049 15.928C117.001 15.976 116.921 16 116.809 16H115.765ZM118.141 12.928H120.865L119.497 9.22L118.141 12.928ZM124.505 16C124.425 16 124.357 15.972 124.301 15.916C124.245 15.86 124.217 15.792 124.217 15.712V10.048C124.217 9.968 124.245 9.9 124.301 9.844C124.357 9.788 124.425 9.76 124.505 9.76H125.501C125.589 9.76 125.657 9.788 125.705 9.844C125.761 9.9 125.789 9.968 125.789 10.048V15.712C125.789 15.792 125.761 15.86 125.705 15.916C125.657 15.972 125.589 16 125.501 16H124.505ZM124.457 8.728C124.369 8.728 124.297 8.704 124.241 8.656C124.193 8.6 124.169 8.528 124.169 8.44V7.576C124.169 7.496 124.193 7.428 124.241 7.372C124.297 7.316 124.369 7.288 124.457 7.288H125.549C125.637 7.288 125.709 7.316 125.765 7.372C125.821 7.428 125.849 7.496 125.849 7.576V8.44C125.849 8.528 125.821 8.6 125.765 8.656C125.709 8.704 125.637 8.728 125.549 8.728H124.457ZM127.675 16C127.595 16 127.527 15.972 127.471 15.916C127.415 15.86 127.387 15.792 127.387 15.712V10.06C127.387 9.972 127.415 9.9 127.471 9.844C127.527 9.788 127.595 9.76 127.675 9.76H128.647C128.727 9.76 128.795 9.788 128.851 9.844C128.915 9.9 128.947 9.972 128.947 10.06V10.552C129.131 10.296 129.367 10.1 129.655 9.964C129.951 9.828 130.291 9.76 130.675 9.76H131.167C131.255 9.76 131.323 9.788 131.371 9.844C131.427 9.9 131.455 9.968 131.455 10.048V10.912C131.455 10.992 131.427 11.06 131.371 11.116C131.323 11.172 131.255 11.2 131.167 11.2H130.231C129.847 11.2 129.547 11.308 129.331 11.524C129.123 11.74 129.019 12.036 129.019 12.412V15.712C129.019 15.792 128.991 15.86 128.935 15.916C128.879 15.972 128.807 16 128.719 16H127.675ZM135.559 16.12C134.823 16.12 134.195 15.992 133.675 15.736C133.163 15.48 132.763 15.112 132.475 14.632C132.195 14.144 132.043 13.564 132.019 12.892C132.011 12.548 132.007 12.18 132.007 11.788C132.007 11.388 132.011 11.012 132.019 10.66C132.043 9.996 132.195 9.428 132.475 8.956C132.763 8.484 133.167 8.12 133.687 7.864C134.215 7.608 134.839 7.48 135.559 7.48C136.143 7.48 136.655 7.56 137.095 7.72C137.535 7.872 137.899 8.072 138.187 8.32C138.483 8.56 138.703 8.82 138.847 9.1C138.999 9.38 139.079 9.64 139.087 9.88C139.095 9.952 139.075 10.012 139.027 10.06C138.979 10.108 138.915 10.132 138.835 10.132H137.599C137.519 10.132 137.459 10.116 137.419 10.084C137.379 10.052 137.343 10.004 137.311 9.94C137.247 9.772 137.147 9.608 137.011 9.448C136.875 9.28 136.691 9.14 136.459 9.028C136.227 8.916 135.927 8.86 135.559 8.86C135.015 8.86 134.579 9.004 134.251 9.292C133.931 9.58 133.759 10.056 133.735 10.72C133.711 11.416 133.711 12.12 133.735 12.832C133.759 13.512 133.935 14 134.263 14.296C134.599 14.592 135.039 14.74 135.583 14.74C135.943 14.74 136.263 14.676 136.543 14.548C136.831 14.42 137.055 14.22 137.215 13.948C137.383 13.676 137.467 13.328 137.467 12.904V12.532H136.003C135.923 12.532 135.855 12.504 135.799 12.448C135.743 12.392 135.715 12.32 135.715 12.232V11.596C135.715 11.508 135.743 11.436 135.799 11.38C135.855 11.324 135.923 11.296 136.003 11.296H138.871C138.959 11.296 139.027 11.324 139.075 11.38C139.131 11.436 139.159 11.508 139.159 11.596V12.856C139.159 13.528 139.011 14.108 138.715 14.596C138.427 15.084 138.011 15.46 137.467 15.724C136.931 15.988 136.295 16.12 135.559 16.12ZM142.125 16.12C141.709 16.12 141.333 16.04 140.997 15.88C140.661 15.712 140.393 15.492 140.193 15.22C140.001 14.94 139.905 14.628 139.905 14.284C139.905 13.724 140.129 13.28 140.577 12.952C141.033 12.616 141.633 12.392 142.377 12.28L144.021 12.04V11.788C144.021 11.452 143.937 11.192 143.769 11.008C143.601 10.824 143.313 10.732 142.905 10.732C142.617 10.732 142.381 10.792 142.197 10.912C142.021 11.024 141.889 11.176 141.801 11.368C141.737 11.472 141.645 11.524 141.525 11.524H140.577C140.489 11.524 140.421 11.5 140.373 11.452C140.333 11.404 140.313 11.34 140.313 11.26C140.321 11.132 140.373 10.976 140.469 10.792C140.565 10.608 140.717 10.432 140.925 10.264C141.133 10.088 141.401 9.94 141.729 9.82C142.057 9.7 142.453 9.64 142.917 9.64C143.421 9.64 143.845 9.704 144.189 9.832C144.541 9.952 144.821 10.116 145.029 10.324C145.237 10.532 145.389 10.776 145.485 11.056C145.581 11.336 145.629 11.632 145.629 11.944V15.712C145.629 15.792 145.601 15.86 145.545 15.916C145.489 15.972 145.421 16 145.341 16H144.369C144.281 16 144.209 15.972 144.153 15.916C144.105 15.86 144.081 15.792 144.081 15.712V15.244C143.977 15.396 143.837 15.54 143.661 15.676C143.485 15.804 143.269 15.912 143.013 16C142.765 16.08 142.469 16.12 142.125 16.12ZM142.533 14.98C142.813 14.98 143.065 14.92 143.289 14.8C143.521 14.68 143.701 14.496 143.829 14.248C143.965 13.992 144.033 13.672 144.033 13.288V13.036L142.833 13.228C142.361 13.3 142.009 13.416 141.777 13.576C141.545 13.736 141.429 13.932 141.429 14.164C141.429 14.34 141.481 14.492 141.585 14.62C141.697 14.74 141.837 14.832 142.005 14.896C142.173 14.952 142.349 14.98 142.533 14.98ZM149.69 16C149.21 16 148.806 15.916 148.478 15.748C148.15 15.58 147.906 15.332 147.746 15.004C147.586 14.668 147.506 14.252 147.506 13.756V11.032H146.558C146.478 11.032 146.41 11.004 146.354 10.948C146.298 10.892 146.27 10.824 146.27 10.744V10.048C146.27 9.968 146.298 9.9 146.354 9.844C146.41 9.788 146.478 9.76 146.558 9.76H147.506V7.768C147.506 7.688 147.53 7.62 147.578 7.564C147.634 7.508 147.706 7.48 147.794 7.48H148.766C148.846 7.48 148.914 7.508 148.97 7.564C149.026 7.62 149.054 7.688 149.054 7.768V9.76H150.554C150.634 9.76 150.702 9.788 150.758 9.844C150.814 9.9 150.842 9.968 150.842 10.048V10.744C150.842 10.824 150.814 10.892 150.758 10.948C150.702 11.004 150.634 11.032 150.554 11.032H149.054V13.636C149.054 13.964 149.11 14.22 149.222 14.404C149.342 14.588 149.546 14.68 149.834 14.68H150.662C150.742 14.68 150.81 14.708 150.866 14.764C150.922 14.82 150.95 14.888 150.95 14.968V15.712C150.95 15.792 150.922 15.86 150.866 15.916C150.81 15.972 150.742 16 150.662 16H149.69ZM154.463 16.12C153.575 16.12 152.871 15.864 152.351 15.352C151.831 14.84 151.551 14.112 151.511 13.168C151.503 13.088 151.499 12.988 151.499 12.868C151.499 12.74 151.503 12.64 151.511 12.568C151.543 11.968 151.679 11.448 151.919 11.008C152.167 10.568 152.507 10.232 152.939 10C153.371 9.76 153.879 9.64 154.463 9.64C155.111 9.64 155.655 9.776 156.095 10.048C156.535 10.312 156.867 10.684 157.091 11.164C157.315 11.636 157.427 12.184 157.427 12.808V13.06C157.427 13.14 157.399 13.208 157.343 13.264C157.287 13.32 157.215 13.348 157.127 13.348H153.143C153.143 13.348 153.143 13.36 153.143 13.384C153.143 13.408 153.143 13.428 153.143 13.444C153.151 13.724 153.203 13.984 153.299 14.224C153.403 14.456 153.551 14.644 153.743 14.788C153.943 14.932 154.179 15.004 154.451 15.004C154.675 15.004 154.863 14.972 155.015 14.908C155.167 14.836 155.291 14.756 155.387 14.668C155.483 14.58 155.551 14.508 155.591 14.452C155.663 14.356 155.719 14.3 155.759 14.284C155.807 14.26 155.875 14.248 155.963 14.248H156.995C157.075 14.248 157.139 14.272 157.187 14.32C157.243 14.368 157.267 14.428 157.259 14.5C157.251 14.628 157.183 14.784 157.055 14.968C156.935 15.152 156.759 15.332 156.527 15.508C156.295 15.684 156.003 15.832 155.651 15.952C155.307 16.064 154.911 16.12 154.463 16.12ZM153.143 12.34H155.795V12.304C155.795 11.992 155.743 11.72 155.639 11.488C155.535 11.256 155.383 11.072 155.183 10.936C154.983 10.8 154.743 10.732 154.463 10.732C154.183 10.732 153.943 10.8 153.743 10.936C153.543 11.072 153.391 11.256 153.287 11.488C153.191 11.72 153.143 11.992 153.143 12.304V12.34Z" fill="#9A9FBF"/>
</g>
</svg>
